<svg xmlns="http://www.w3.org/2000/svg" width="643.0543823242188" height="184.50704956054688" viewBox="-493.9308776855469 -106.21841430664062 643.0543823242188 184.50704956054688"><title>Neo4j Graph Visualization</title><desc>Created using Neo4j (http://www.neo4j.com/)</desc><g class="layer relationships"><g class="relationship" transform="translate(19.205994896986542 -51.345079675831) rotate(404.9193209730974)"><path class="outline" fill="#A5ABB6" stroke="none" d="M 25 0.5 L 50.536536307887886 0.5 L 50.536536307887886 -0.5 L 25 -0.5 Z M 84.98184880788789 0.5 L 110.51838511577577 0.5 L 110.51838511577577 3.5 L 117.51838511577577 0 L 110.51838511577577 -3.5 L 110.51838511577577 -0.5 L 84.98184880788789 -0.5 Z"/><text text-anchor="middle" pointer-events="none" font-size="8px" fill="#000000" x="67.75919255788789" y="3" font-family="sans-serif">ORIGIN</text></g><g class="relationship" transform="translate(19.205994896986542 -51.345079675831) rotate(528.113136018726)"><path class="outline" fill="#A5ABB6" stroke="none" d="M 25 0.5 L 42.29390352775091 0.5 L 42.29390352775091 -0.5 L 25 -0.5 Z M 101.48140352775091 0.5 L 118.77530705550183 0.5 L 118.77530705550183 3.5 L 125.77530705550183 0 L 118.77530705550183 -3.5 L 118.77530705550183 -0.5 L 101.48140352775091 -0.5 Z"/><text text-anchor="middle" pointer-events="none" font-size="8px" fill="#000000" x="71.88765352775091" y="3" transform="rotate(180 71.88765352775091 0)" font-family="sans-serif">DESTINATION</text></g><g class="relationship" transform="translate(-290.7985943428279 -44.020967474604504) rotate(368.31099815326394)"><path class="outline" fill="#A5ABB6" stroke="none" d="M 25 0.5 L 61.37071957448916 0.5 L 61.37071957448916 -0.5 L 25 -0.5 Z M 95.81603207448916 0.5 L 132.18675164897832 0.5 L 132.18675164897832 3.5 L 139.18675164897832 0 L 132.18675164897832 -3.5 L 132.18675164897832 -0.5 L 95.81603207448916 -0.5 Z"/><text text-anchor="middle" pointer-events="none" font-size="8px" fill="#000000" x="78.59337582448916" y="3" font-family="sans-serif">ORIGIN</text></g><g class="relationship" transform="translate(-290.7985943428279 -44.020967474604504) rotate(190.79363223355847)"><path class="outline" fill="#A5ABB6" stroke="none" d="M 25 0.5 L 55.5404952040776 0.5 L 55.5404952040776 -0.5 L 25 -0.5 Z M 114.7279952040776 0.5 L 145.2684904081552 0.5 L 145.2684904081552 3.5 L 152.2684904081552 0 L 145.2684904081552 -3.5 L 145.2684904081552 -0.5 L 114.7279952040776 -0.5 Z"/><text text-anchor="middle" pointer-events="none" font-size="8px" fill="#000000" x="85.1342452040776" y="3" transform="rotate(180 85.1342452040776 0)" font-family="sans-serif">DESTINATION</text></g></g><g class="layer nodes"><g class="node" aria-label="graph-node21" transform="translate(120.12351526437719,49.28863325828404)"><circle class="outline" cx="0" cy="0" r="25" fill="#ECB5C9" stroke="#da7298" stroke-width="2px"/><text class="caption" text-anchor="middle" pointer-events="none" x="0" y="5" font-size="10px" fill="#2A2C34" font-family="sans-serif"> MSN</text></g><g class="node" aria-label="graph-node68" transform="translate(-464.93086301659,-77.2184176495042)"><circle class="outline" cx="0" cy="0" r="25" fill="#ECB5C9" stroke="#da7298" stroke-width="2px"/><text class="caption" text-anchor="middle" pointer-events="none" x="0" y="5" font-size="10px" fill="#2A2C34" font-family="sans-serif"> GRR</text></g><g class="node" aria-label="graph-node271" transform="translate(19.205994896986542,-51.345079675831)"><circle class="outline" cx="0" cy="0" r="25" fill="#4C8EDA" stroke="#2870c2" stroke-width="2px"/><text class="caption" text-anchor="middle" pointer-events="none" x="0" y="5" font-size="10px" fill="#FFFFFF" font-family="sans-serif"> 11/30/20…</text></g><g class="node" aria-label="graph-node7" transform="translate(-128.3361219293767,-20.28840599565981)"><circle class="outline" cx="0" cy="0" r="25" fill="#ECB5C9" stroke="#da7298" stroke-width="2px"/><text class="caption" text-anchor="middle" pointer-events="none" x="0" y="5" font-size="10px" fill="#2A2C34" font-family="sans-serif"> ORD</text></g><g class="node" aria-label="graph-node847" transform="translate(-290.7985943428279,-44.020967474604504)"><circle class="outline" cx="0" cy="0" r="25" fill="#4C8EDA" stroke="#2870c2" stroke-width="2px"/><text class="caption" text-anchor="middle" pointer-events="none" x="0" y="5" font-size="10px" fill="#FFFFFF" font-family="sans-serif"> 11/10/20…</text></g></g></svg>